<?xml version="1.0" encoding="UTF-8"?>
<svg width="100" height="100" version="1.1" viewBox="0 0 46.458 46.458" xmlns="http://www.w3.org/2000/svg" xmlns:cc="http://creativecommons.org/ns#" xmlns:dc="http://purl.org/dc/elements/1.1/" xmlns:rdf="http://www.w3.org/1999/02/22-rdf-syntax-ns#">
<metadata>
<rdf:RDF>
<cc:Work rdf:about="">
<dc:format>image/svg+xml</dc:format>
<dc:type rdf:resource="http://purl.org/dc/dcmitype/StillImage"/>
<dc:title/>
</cc:Work>
</rdf:RDF>
</metadata>
<g transform="translate(76.556 -116.41)">
<path d="m-76.556 116.41h46.458v46.458h-46.458z" fill="#121212" fill-opacity=".93627" stroke-width=".39865"/>
<g transform="matrix(.98047 0 0 .98047 -3.2013 4.6029)">
<g>
<g aria-label="u">
<path d="m-63.384 130.84v12.427q0 1.3162 0.47862 1.8119 0.49571 0.49571 1.3675 0.49571 0.83758 0 1.6752-0.5299t1.4017-1.4359v-12.769h5.4016v18.153h-4.7178l-0.23931-2.1196q-0.92305 1.3333-2.4273 2.017-1.5042 0.68374-3.1452 0.68374-2.6324 0-3.9144-1.5213-1.282-1.5384-1.282-4.1196v-13.094z" fill="#e0e2e3" stroke-width=".85468" style="font-feature-settings:normal;font-variant-caps:normal;font-variant-ligatures:normal;font-variant-numeric:normal"/>
</g>
<g aria-label="L">
<path d="m-49.342 149.58v-23.692h5.6067v19.264h10.273l-0.58118 4.4272z" fill="#1ce31c" stroke-width=".85468" style="font-feature-settings:normal;font-variant-caps:normal;font-variant-ligatures:normal;font-variant-numeric:normal"/>
</g>
</g>
</g>
</g>
</svg>
