<?xml version="1.0" encoding="UTF-8"?>
<svg width="76.066mm" height="23.931mm" version="1.1" viewBox="0 0 76.066 23.931" xmlns="http://www.w3.org/2000/svg" xmlns:cc="http://creativecommons.org/ns#" xmlns:dc="http://purl.org/dc/elements/1.1/" xmlns:rdf="http://www.w3.org/1999/02/22-rdf-syntax-ns#">
<metadata>
<rdf:RDF>
<cc:Work rdf:about="">
<dc:format>image/svg+xml</dc:format>
<dc:type rdf:resource="http://purl.org/dc/dcmitype/StillImage"/>
<dc:title/>
</cc:Work>
</rdf:RDF>
</metadata>
<g transform="translate(40.845 -115.2)">
<g stroke-width=".85468" aria-label="&lt;uL&gt;">
<path d="m-27.7 118.43 1.3846 2.2051-12.068 7.4015 12.068 7.4699-1.5384 2.1025-12.991-8.1194v-2.9401z" fill="#1ce31c"/>
<path d="m-17.034 120.73v12.752q0 1.7777 0.73502 2.564 0.73502 0.7863 2.2905 0.7863 1.4871 0 2.8033-0.83758 1.3333-0.85468 2.0683-2.017v-13.248h2.8717v18h-2.4444l-0.23931-2.4273q-1.0598 1.3675-2.6153 2.1025-1.5555 0.71793-3.1452 0.71793-2.6153 0-3.9144-1.3846-1.282-1.4017-1.282-3.9144v-13.094z" fill="#e0e2e3"/>
<path d="m1.8029 138.73v-23.538h2.9743v20.888h10.735l-0.34187 2.6495z" fill="#1ce31c"/>
<path d="m22.076 118.43 13.145 8.1194v2.9401l-12.974 8.1194-1.5555-2.1196 12.068-7.4528-12.068-7.4357z" fill="#e0e2e3"/>
</g>
</g>
</svg>
