<?xml version="1.0" encoding="UTF-8"?>
<svg width="240.16mm" height="26.82mm" version="1.1" viewBox="0 0 240.16 26.82" xmlns="http://www.w3.org/2000/svg" xmlns:cc="http://creativecommons.org/ns#" xmlns:dc="http://purl.org/dc/elements/1.1/" xmlns:rdf="http://www.w3.org/1999/02/22-rdf-syntax-ns#">
<metadata>
<rdf:RDF>
<cc:Work rdf:about="">
<dc:format>image/svg+xml</dc:format>
<dc:type rdf:resource="http://purl.org/dc/dcmitype/StillImage"/>
<dc:title/>
</cc:Work>
</rdf:RDF>
</metadata>
<g transform="translate(40.845 -112.31)">
<g stroke-width=".85468" aria-label="&lt;unameLinux&gt;">
<path d="m-27.7 118.43 1.3846 2.2051-12.068 7.4015 12.068 7.4699-1.5384 2.1025-12.991-8.1194v-2.9401z" fill="#1ce31c"/>
<path d="m-17.034 120.73v12.752q0 1.7777 0.73502 2.564 0.73502 0.7863 2.2905 0.7863 1.4871 0 2.8033-0.83758 1.3333-0.85468 2.0683-2.017v-13.248h2.8717v18h-2.4444l-0.23931-2.4273q-1.0598 1.3675-2.6153 2.1025-1.5555 0.71793-3.1452 0.71793-2.6153 0-3.9144-1.3846-1.282-1.4017-1.282-3.9144v-13.094z" fill="#e0e2e3"/>
<path d="m0.60639 138.73v-18h2.4444l0.22222 2.4957q1.094-1.3846 2.735-2.1196 1.6581-0.75211 3.2136-0.75211 2.6495 0 3.8461 1.4017 1.2136 1.4017 1.2136 3.8973v13.077h-2.8717v-10.957q0-1.8461-0.20512-2.9743-0.20512-1.1453-0.85468-1.6581-0.64956-0.5299-2.017-0.5299-1.0598 0-1.9999 0.46152-0.92305 0.46153-1.6581 1.1624-0.71793 0.68374-1.1966 1.3846v13.111z" fill="#e0e2e3"/>
<path d="m34.007 134.8q0 1.0769 0.35896 1.5726 0.35896 0.49571 1.1111 0.73502l-0.70084 2.017q-1.1624-0.15384-2.0341-0.73502-0.87177-0.59828-1.2649-1.7948-0.97433 1.2478-2.4273 1.8974-1.453 0.63246-3.2136 0.63246-2.7008 0-4.2563-1.5213-1.5555-1.5213-1.5555-4.0341 0-2.7862 2.1709-4.2734 2.1709-1.4871 6.2733-1.4871h2.6495v-1.5042q0-1.9487-1.1453-2.7521-1.1282-0.82049-3.1452-0.82049-0.88887 0-2.0854 0.22222-1.1966 0.20512-2.5982 0.70084l-0.75212-2.1709q1.6581-0.61537 3.111-0.87177t2.7692-0.2564q3.3674 0 5.0426 1.5726 1.6923 1.5555 1.6923 4.2392zm-7.4357 2.1367q1.3333 0 2.5469-0.66664 1.2136-0.68375 1.9999-1.8803v-4.6324h-2.5982q-2.9743 0-4.205 1.0256-1.2136 1.0256-1.2136 2.7521 0 1.6752 0.85468 2.547 0.87177 0.85467 2.6153 0.85467z" fill="#e0e2e3"/>
<path d="m53.494 120.36q0.87177 0 1.6581 0.37605 0.8034 0.37606 1.3162 1.453 0.51281 1.0769 0.51281 3.1452v13.401h-2.6666v-12.94q0-1.6923-0.20512-2.4444-0.20512-0.75212-1.1795-0.75212-0.8034 0-1.6068 0.51281-0.7863 0.49572-1.5384 1.641v13.983h-2.6837v-12.94q0-1.6923-0.20512-2.4444t-1.1795-0.75212q-0.83759 0-1.6239 0.51281-0.76921 0.49572-1.5213 1.641v13.983h-2.6495v-18h2.2564l0.17094 2.0854q0.73502-1.0427 1.641-1.7435 0.92305-0.71793 2.2734-0.71793 1.0256 0 1.9316 0.49571 0.90596 0.47862 1.3333 1.8803 0.73502-1.0598 1.6581-1.7094 0.92305-0.66665 2.3076-0.66665z" fill="#e0e2e3"/>
<path d="m64.399 130.75q0.08547 2.0854 0.8034 3.4187 0.71793 1.3162 1.8974 1.9487 1.1795 0.61537 2.564 0.61537t2.4957-0.41024q1.1282-0.41025 2.3076-1.2136l1.3504 1.8974q-1.2649 0.99143-2.8888 1.5555-1.6068 0.56409-3.2991 0.56409-2.6153 0-4.4614-1.1794-1.8461-1.1795-2.8204-3.282-0.95724-2.1196-0.95724-4.9059 0-2.735 0.97433-4.8546 0.97433-2.1196 2.735-3.3332t4.1537-1.2136q2.2734 0 3.9144 1.0769 1.641 1.0598 2.5128 3.0427 0.88887 1.9658 0.88887 4.7007 0 0.46153-0.01709 0.87177-0.01709 0.39316-0.05128 0.70084zm4.8888-8.034q-1.9999 0-3.3503 1.4188-1.3333 1.4188-1.5213 4.393h9.3844q-0.05128-2.8888-1.2649-4.3418-1.2136-1.47-3.2478-1.47z" fill="#e0e2e3"/>
<path d="m83.852 138.73v-23.538h2.9743v20.888h10.735l-0.34187 2.6495z" fill="#1ce31c"/>
<path d="m112.28 120.73v15.726h5.0768v2.2734h-13.504v-2.2734h5.5554v-13.453h-5.3845v-2.2734zm-2.2905-8.4271q0.95724 0 1.5213 0.58118 0.58118 0.58118 0.58118 1.4188 0 0.87177-0.58118 1.47-0.56409 0.58118-1.5213 0.58118-0.90596 0-1.4871-0.58118-0.58118-0.59828-0.58118-1.47 0-0.83759 0.58118-1.4188t1.4871-0.58118z" fill="#1ce31c"/>
<path d="m123.68 138.73v-18h2.4444l0.22221 2.4957q1.094-1.3846 2.735-2.1196 1.6581-0.75211 3.2136-0.75211 2.6495 0 3.846 1.4017 1.2136 1.4017 1.2136 3.8973v13.077h-2.8717v-10.957q0-1.8461-0.20512-2.9743-0.20512-1.1453-0.85468-1.6581-0.64955-0.5299-2.017-0.5299-1.0598 0-2 0.46152-0.92305 0.46153-1.6581 1.1624-0.71793 0.68374-1.1966 1.3846v13.111z" fill="#1ce31c"/>
<path d="m147.06 120.73v12.752q0 1.7777 0.73503 2.564 0.73502 0.7863 2.2905 0.7863 1.4871 0 2.8033-0.83758 1.3333-0.85468 2.0683-2.017v-13.248h2.8717v18h-2.4444l-0.23931-2.4273q-1.0598 1.3675-2.6153 2.1025-1.5555 0.71793-3.1452 0.71793-2.6153 0-3.9144-1.3846-1.282-1.4017-1.282-3.9144v-13.094z" fill="#1ce31c"/>
<path d="m166.45 138.73h-3.282l6.6494-9.504-5.8289-8.4955h3.4016l4.1708 6.7007 4.2221-6.7007h3.282l-5.8118 8.3759 6.6323 9.6237h-3.5213l-4.923-7.7263z" fill="#1ce31c"/>
<path d="m186.17 118.43 13.145 8.1194v2.9401l-12.974 8.1194-1.5555-2.1196 12.068-7.4528-12.068-7.4357z" fill="#e0e2e3"/>
</g>
</g>
</svg>
