<?xml version="1.0" encoding="UTF-8"?>
<svg class="svg replaced-svg" width="102.08pt" height="30.903pt" version="1.1" viewBox="0 0 1537.3 465.36" xmlns="http://www.w3.org/2000/svg" xmlns:cc="http://creativecommons.org/ns#" xmlns:dc="http://purl.org/dc/elements/1.1/" xmlns:rdf="http://www.w3.org/1999/02/22-rdf-syntax-ns#" xmlns:xlink="http://www.w3.org/1999/xlink">
<metadata>
<rdf:RDF>
<cc:Work rdf:about="">
<dc:format>image/svg+xml</dc:format>
<dc:type rdf:resource="http://purl.org/dc/dcmitype/StillImage"/>
<dc:title/>
</cc:Work>
</rdf:RDF>
</metadata>
<defs>
<linearGradient id="b" x1="110.25" x2="496.14" y1="213.3" y2="436.09" gradientUnits="userSpaceOnUse">
<stop stop-color="#AA5CC3" offset="0"/>
<stop stop-color="#00A4DC" offset="1"/>
</linearGradient>
<linearGradient id="a" x1="110.25" x2="496.14" y1="213.3" y2="436.09" gradientUnits="userSpaceOnUse" xlink:href="#b"/>
</defs>
<g transform="translate(-23.29 -23.3)" fill="url(#a)">
<path d="m256 201.6c-20.4 0-86.2 119.3-76.2 139.4s142.5 19.9 152.4 0-55.7-139.4-76.2-139.4z"/>
<path d="m256 23.3c-61.6 0-259.8 359.4-229.6 420.1s429.3 60 459.2 0-168-420.1-229.6-420.1zm150.5 367.5c-19.6 39.3-281.1 39.8-300.9 0s110.1-275.3 150.4-275.3 170.1 235.9 150.5 275.3z"/>
</g>
<g fill="#e2e2e2" aria-label="Jellyfin">
<path d="m605 321.23q-19.923 0-35.735-11.068-15.812-11.068-24.034-29.094-1.5812-2.8461-1.5812-5.0598 0-4.1111 3.1624-6.3247 3.1624-2.5299 6.3247-2.5299t5.0598 1.5812q2.2136 1.5812 3.7948 3.7948 6.0085 13.282 17.393 21.504t25.615 8.2221q14.547 0 25.615-6.0085 11.068-6.3247 17.077-17.393 6.3247-11.068 6.3247-25.299v-147.37q0-3.7948 2.8461-6.6409 3.1624-2.8461 7.2734-2.8461 4.4273 0 6.9572 2.8461 2.8461 2.8461 2.8461 6.6409v147.37q0 19.607-8.8546 35.102-8.8546 15.179-24.35 24.034-15.496 8.5383-35.735 8.5383z" style="font-variant-caps:normal;font-variant-east-asian:normal;font-variant-ligatures:normal;font-variant-numeric:normal"/>
<path d="m800.43 321.23q-24.35 0-43.008-10.436-18.658-10.436-29.094-29.094-10.436-18.658-10.436-43.64 0-26.88 10.436-45.854 10.752-18.974 27.512-29.094 17.077-10.436 36.051-10.436 13.914 0 26.88 5.0598 13.282 4.7435 23.401 14.547 10.12 9.487 16.444 23.401t6.6409 32.256q0 3.7948-2.8461 6.6409-2.8461 2.5299-6.6409 2.5299h-126.81l-3.7948-17.077h124.6l-4.111 3.7948v-6.3247q-1.5812-14.863-9.8033-25.299-8.2221-10.436-19.923-15.812-11.384-5.376-24.034-5.376-9.487 0-19.607 3.7948-9.8033 3.7948-18.025 12.017-7.9059 7.9059-12.966 20.555-5.0598 12.333-5.0598 29.41 0 18.658 7.5896 33.837t21.82 24.034q14.231 8.8546 34.47 8.8546 10.752 0 19.607-3.1624t15.496-8.2221q6.9572-5.376 11.384-11.068 3.4786-2.8461 6.6409-2.8461 3.4786 0 5.6922 2.5299 2.5299 2.5299 2.5299 5.6922 0 3.7948-3.1624 6.6409-9.487 11.384-24.666 19.923-15.179 8.2221-33.205 8.2221z" style="font-variant-caps:normal;font-variant-east-asian:normal;font-variant-ligatures:normal;font-variant-numeric:normal"/>
<path d="m925.35 308.58q0 3.7948-2.8461 6.6409-2.8461 2.8461-6.6409 2.8461-4.111 0-6.9572-2.8461-2.5299-2.8461-2.5299-6.6409v-215.04q0-3.7948 2.8461-6.6409t6.6409-2.8461q4.1111 0 6.6409 2.8461 2.8461 2.8461 2.8461 6.6409z" style="font-variant-caps:normal;font-variant-east-asian:normal;font-variant-ligatures:normal;font-variant-numeric:normal"/>
<path d="m998.08 308.58q0 3.7948-2.8461 6.6409-2.8461 2.8461-6.6409 2.8461-4.111 0-6.9572-2.8461-2.5299-2.8461-2.5299-6.6409v-215.04q0-3.7948 2.8461-6.6409 2.8461-2.8461 6.6409-2.8461 4.1111 0 6.6409 2.8461 2.8461 2.8461 2.8461 6.6409z" style="font-variant-caps:normal;font-variant-east-asian:normal;font-variant-ligatures:normal;font-variant-numeric:normal"/>
<path d="m1165.7 153.62q4.111 0 6.6409 2.8461 2.8461 2.8461 2.8461 6.6409v139.46q0 25.615-10.12 43.008-10.12 17.709-27.196 26.564-17.077 9.1708-38.897 9.1708-13.598 0-25.299-3.1624-11.384-2.8461-18.658-7.5896-3.7948-2.2136-5.6922-5.376t-0.3162-6.6409q1.5811-4.4273 4.7435-6.0085 3.4786-1.2649 6.9571 0.31624 5.376 2.8461 15.496 6.9572 10.12 4.111 23.085 4.111 17.393 0 30.042-7.2734 12.966-7.2734 19.923-21.188 6.9572-13.598 6.9572-32.572v-22.769l2.2137 7.5896q-4.7436 9.8033-13.598 17.393-8.5384 7.5896-19.923 12.017-11.068 4.111-23.718 4.111-18.974 0-31.624-7.5896-12.333-7.9059-18.342-21.504-6.0085-13.598-6.0085-31.94v-97.084q0-3.7948 2.5299-6.6409 2.5299-2.8461 6.9572-2.8461 4.111 0 6.6409 2.8461 2.8461 2.8461 2.8461 6.6409v94.238q0 22.136 9.4871 34.153 9.8033 12.017 31.624 12.017 13.598 0 24.982-6.3247 11.384-6.6409 18.658-17.077 7.2734-10.752 7.2734-22.769v-94.238q0-3.7948 2.5299-6.6409 2.8461-2.8461 6.9572-2.8461z" style="font-variant-caps:normal;font-variant-east-asian:normal;font-variant-ligatures:normal;font-variant-numeric:normal"/>
<path d="m1283.3 85.316q4.7435 0 10.12 0.9487 5.6922 0.9487 9.8033 3.4786 4.111 2.2136 4.111 6.9572 0 3.4786-2.5299 6.3247-2.5298 2.5299-5.6922 2.5299-3.1623 0-7.9059-1.5812-4.7435-1.8974-10.12-1.8974-6.6409 0-11.384 3.1624-4.7436 2.8461-7.2734 8.5383-2.5299 5.376-2.5299 13.282v181.52q0 3.7948-2.8461 6.6409-2.5299 2.8461-6.641 2.8461-4.111 0-6.9571-2.8461-2.5299-2.8461-2.5299-6.6409v-181.52q0-20.239 11.701-30.991 12.017-10.752 30.675-10.752zm12.017 74.315q3.7948 0 6.3247 2.5299t2.5299 6.3247-2.5299 6.3247-6.3247 2.5299h-77.478q-3.4786 0-6.3247-2.5299-2.5299-2.8461-2.5299-6.3247 0-4.111 2.5299-6.3247 2.8461-2.5299 6.3247-2.5299zm59.452 148.95q0 3.7948-2.8461 6.6409-2.8462 2.8461-6.641 2.8461-4.111 0-6.9572-2.8461-2.5298-2.8461-2.5298-6.6409v-145.47q0-3.7948 2.5298-6.6409 2.8462-2.8461 6.9572-2.8461 4.1111 0 6.641 2.8461 2.8461 2.8461 2.8461 6.6409zm-9.4871-176.14q-6.6409 0-10.12-2.8461-3.1624-3.1624-3.1624-8.8546v-3.1624q0-5.6922 3.4786-8.5383 3.7949-3.1624 10.12-3.1624 6.0084 0 9.1708 3.1624 3.4786 2.8461 3.4786 8.5383v3.1624q0 5.6922-3.4786 8.8546-3.1624 2.8461-9.4871 2.8461z" style="font-variant-caps:normal;font-variant-east-asian:normal;font-variant-ligatures:normal;font-variant-numeric:normal"/>
<path d="m1480.3 152.67q20.872 0 33.205 8.5384 12.649 8.2221 18.025 22.769 5.6923 14.231 5.6923 31.624v92.973q0 3.7948-2.8461 6.6409-2.8462 2.8461-6.641 2.8461-4.4273 0-6.9571-2.8461-2.5299-2.8461-2.5299-6.6409v-92.024q0-12.649-4.1111-23.085-4.111-10.436-13.598-16.76-9.1708-6.3247-24.35-6.3247-13.598 0-25.931 6.3247-12.017 6.3247-19.606 16.76-7.5897 10.436-7.5897 23.085v92.024q0 3.7948-2.8461 6.6409-2.8461 2.8461-6.6409 2.8461-4.4273 0-6.9572-2.8461-2.5299-2.8461-2.5299-6.6409v-141.67q0-3.7948 2.5299-6.6409 2.8461-2.8461 6.9572-2.8461 4.111 0 6.6409 2.8461 2.8461 2.8461 2.8461 6.6409v26.564l-7.2734 11.384q0.6325-10.12 6.3247-19.29 6.0085-9.487 15.179-16.76 9.1708-7.5896 20.239-11.701 11.384-4.4273 22.769-4.4273z" style="font-variant-caps:normal;font-variant-east-asian:normal;font-variant-ligatures:normal;font-variant-numeric:normal"/>
</g>
</svg>
