<?xml version="1.0" encoding="UTF-8" standalone="no"?>
<svg
   xmlns:dc="http://purl.org/dc/elements/1.1/"
   xmlns:cc="http://creativecommons.org/ns#"
   xmlns:rdf="http://www.w3.org/1999/02/22-rdf-syntax-ns#"
   xmlns:svg="http://www.w3.org/2000/svg"
   xmlns="http://www.w3.org/2000/svg"
   xmlns:sodipodi="http://sodipodi.sourceforge.net/DTD/sodipodi-0.dtd"
   xmlns:inkscape="http://www.inkscape.org/namespaces/inkscape"
   height="417.61221"
   width="1916.4698"
   inkscape:version="1.0 (4035a4fb49, 2020-05-01)"
   sodipodi:docname="gunicorn.svg"
   id="svg24"
   viewBox="0 0 1916.4698 417.61221"
   version="1.1">
  <defs
     id="defs28" />
  <sodipodi:namedview
     fit-margin-bottom="0"
     fit-margin-right="0"
     fit-margin-left="0"
     fit-margin-top="0"
     inkscape:current-layer="g22"
     inkscape:window-maximized="1"
     inkscape:window-y="0"
     inkscape:window-x="0"
     inkscape:cy="329.73647"
     inkscape:cx="527.89422"
     inkscape:zoom="0.40447279"
     showgrid="false"
     id="namedview26"
     inkscape:window-height="1009"
     inkscape:window-width="1920"
     inkscape:pageshadow="2"
     inkscape:pageopacity="0"
     guidetolerance="10"
     gridtolerance="10"
     objecttolerance="10"
     borderopacity="1"
     bordercolor="#666666"
     pagecolor="#ffffff" />
  <metadata
     id="metadata2">
    <rdf:RDF>
      <cc:Work
         rdf:about="">
        <dc:format>image/svg+xml</dc:format>
        <dc:type
           rdf:resource="http://purl.org/dc/dcmitype/StillImage" />
        <dc:title></dc:title>
      </cc:Work>
    </rdf:RDF>
  </metadata>
  <g
     id="g22"
     transform="translate(175.72368,181.93503)">
    <g
       transform="translate(67.029944,595.99408)"
       id="g864">
      <path
         id="path6"
         fill="#e7e7e7"
         d="m 9.14,-360.76 c -156.44,-3.4872 -260.6,-13.866 -251.32,-25.043 0.58443,-0.7042 4.0462,-2.2054 7.6928,-3.336 28.866,-8.9496 129.57,-16.325 253.83,-18.589 l 37.198,-0.6778 -1.4653,6.2811 c -0.8059,3.4546 -1.6523,6.5836 -1.8808,6.9535 -0.22856,0.36981 -1.3361,4.1871 -2.4613,8.4828 -1.4188,5.4168 -1.7524,8.3586 -1.0884,9.5992 1.5446,2.886 6.7289,4.1589 19.287,4.7356 11.157,0.51229 11.913,0.42349 14.131,-1.6597 2.8093,-2.6392 7.6037,-12.789 11.985,-25.371 l 3.2053,-9.2056 78.337,0.52317 -0.47867,2.7384 c -1.6079,9.1987 -2.4525,16.386 -2.4592,20.927 l -0.008,5.1887 4.5239,0.6784 c 6.0067,0.90076 23.15,-0.41845 27.191,-2.0923 3.5632,-1.4762 3.5575,-1.4613 6.0709,-15.964 l 1.7331,-10 18.991,0.17691 c 21.483,0.20013 74.821,2.169 78.241,2.888 2.0979,0.44118 2.2504,0.99582 2.2556,8.2041 0.0124,17.149 2.2548,18.944 21.974,17.59 l 12.521,-0.85945 1.2753,-10.942 c 0.70142,-6.0181 1.4412,-11.108 1.644,-11.311 0.53697,-0.53697 33.541,2.5308 51.581,4.7945 30.629,3.8435 46.264,8.4854 43.523,12.921 -6.1739,9.9896 -95.892,18.509 -232.02,22.033 -32.641,0.84491 -170.92,1.0711 -204,0.33372 z m 475.37,-34.08 c -1.2439,-1.5861 -1.2085,-1.6214 0.37756,-0.37756 1.6658,1.3064 2.1955,2.1276 1.3724,2.1276 -0.20765,0 -0.99515,-0.7875 -1.75,-1.75 z m 187.63,-13.25 c 2.1482,-2.2 4.1309,-4 4.4059,-4 0.275,0 -1.2577,1.8 -3.4059,4 -2.1482,2.2 -4.1309,4 -4.4059,4 -0.275,0 1.2577,-1.8 3.4059,-4 z m -150.1,-7.25 -1.905,-2.25 2.25,1.905 c 1.2375,1.0477 2.25,2.0602 2.25,2.25 0,0.80025 -0.80479,0.20945 -2.595,-1.905 z m -210.33,-9.3333 c 0.048,-1.165 0.28494,-1.4019 0.60416,-0.60417 0.28887,0.72187 0.25335,1.5844 -0.0789,1.9167 -0.33229,0.33229 -0.56864,-0.25834 -0.52522,-1.3125 z m 197.17,-23.917 c 0.0111,-2.2 0.21589,-2.9822 0.45508,-1.7383 0.23919,1.2439 0.23011,3.0439 -0.0202,4 -0.25029,0.95609 -0.446,-0.0617 -0.4349,-2.2617 z m -36.252,-22.878 c 0,-0.20765 0.7875,-0.99515 1.75,-1.75 1.5861,-1.2439 1.6214,-1.2085 0.37756,0.37756 -1.3064,1.6658 -2.1276,2.1955 -2.1276,1.3724 z m 489.46,-53.122 c -3e-4,-22.55 0.1311,-31.918 0.2919,-20.817 0.1608,11.101 0.161,29.551 5e-4,41 -0.1606,11.449 -0.2922,2.367 -0.2924,-20.183 z m -259.3,33.5 c 0,-1.375 0.22698,-1.9375 0.50439,-1.25 0.27741,0.6875 0.27741,1.8125 0,2.5 -0.27741,0.6875 -0.50439,0.125 -0.50439,-1.25 z m -517.08,-0.58333 c 0.048,-1.165 0.28494,-1.4019 0.60416,-0.60417 0.28887,0.72187 0.25335,1.5844 -0.0789,1.9167 -0.33229,0.33229 -0.56864,-0.25834 -0.52522,-1.3125 z m 55,0 c 0.048,-1.165 0.28494,-1.4019 0.60416,-0.60417 0.28887,0.72187 0.25335,1.5844 -0.0789,1.9167 -0.33229,0.33229 -0.56864,-0.25834 -0.52522,-1.3125 z m 584.92,-4.9167 c 1.2917,-1.375 2.5736,-2.5 2.8486,-2.5 0.275,0 -0.5569,1.125 -1.8486,2.5 -1.2917,1.375 -2.5736,2.5 -2.8486,2.5 -0.275,0 0.5569,-1.125 1.8486,-2.5 z m -865.5,-0.5 c 0.99549,-1.1 2.035,-2 2.31,-2 0.275,0 -0.31449,0.9 -1.31,2 -0.99551,1.1 -2.035,2 -2.31,2 -0.275,0 0.31449,-0.9 1.31,-2 z m 597.31,-0.68311 c 0.72187,-0.28887 1.5844,-0.25335 1.9167,0.0789 0.33229,0.33229 -0.25834,0.56864 -1.3125,0.52522 -1.165,-0.048 -1.4019,-0.28494 -0.60417,-0.60416 z m 726.64,-4.5669 -3.9529,-4.25 4.25,3.953 c 2.3375,2.1741 4.25,4.0866 4.25,4.25 0,0.75658 -0.8709,-4.9e-4 -4.5471,-3.953 z m -53.953,0.25 c 0.9955,-1.1 2.035,-2 2.31,-2 0.275,0 -0.3145,0.9 -1.31,2 -0.9955,1.1 -2.035,2 -2.31,2 -0.275,0 0.3145,-0.9 1.31,-2 z m -979.58,-8.75 -2.4243,-2.75 2.75,2.4243 c 2.5703,2.2659 3.2086,3.0757 2.4243,3.0757 -0.17912,0 -1.4166,-1.2375 -2.75,-2.75 z m 239.48,-0.5 -1.905,-2.25 2.25,1.905 c 1.2375,1.0477 2.25,2.0602 2.25,2.25 0,0.80025 -0.80479,0.20945 -2.595,-1.905 z m -422.17,-10.75 c 0,-1.925 0.2058,-2.7125 0.45733,-1.75 0.25152,0.9625 0.25152,2.5375 0,3.5 -0.25153,0.9625 -0.45733,0.175 -0.45733,-1.75 z m 1274.6,2.3169 c 0.7219,-0.28887 1.5844,-0.25335 1.9167,0.0789 0.3323,0.33229 -0.2584,0.56864 -1.3125,0.52522 -1.165,-0.048 -1.4019,-0.28494 -0.6042,-0.60416 z m -1182.1,-1.9792 c 0.6875,-0.27741 1.8125,-0.27741 2.5,0 0.6875,0.27741 0.125,0.50439 -1.25,0.50439 -1.375,0 -1.9375,-0.22698 -1.25,-0.50439 z m -60.938,-1.0208 c 0.72187,-0.28887 1.5844,-0.25335 1.9167,0.0789 0.33229,0.33229 -0.25834,0.56864 -1.3125,0.52522 -1.165,-0.048 -1.4019,-0.28494 -0.60417,-0.60416 z m 1266.2,-6.6944 c 0,-0.20765 0.7875,-0.99515 1.75,-1.75 1.5861,-1.2439 1.6214,-1.2085 0.3776,0.37756 -1.3064,1.6658 -2.1276,2.1955 -2.1276,1.3724 z m -161.5,-2.6224 c 0.9955,-1.1 2.035,-2 2.31,-2 0.275,0 -0.3145,0.9 -1.31,2 -0.9955,1.1 -2.035,2 -2.31,2 -0.275,0 0.3145,-0.9 1.31,-2 z m -626.75,-15.662 c 0.6875,-0.27741 1.8125,-0.27741 2.5,0 0.6875,0.27741 0.125,0.50439 -1.25,0.50439 -1.375,0 -1.9375,-0.22698 -1.25,-0.50439 z m 31,-1 c 0.6875,-0.27741 1.8125,-0.27741 2.5,0 0.6875,0.27741 0.125,0.50439 -1.25,0.50439 -1.375,0 -1.9375,-0.22698 -1.25,-0.50439 z m 649.54,-19.838 c 0.01,-2.75 0.2017,-3.7563 0.4316,-2.2362 0.2298,1.5201 0.2237,3.7701 -0.014,5 -0.2373,1.2299 -0.4254,-0.0137 -0.4179,-2.7638 z m 317.87,1.5 c 0,-1.375 0.227,-1.9375 0.5044,-1.25 0.2774,0.6875 0.2774,1.8125 0,2.5 -0.2774,0.6875 -0.5044,0.125 -0.5044,-1.25 z m 58.921,-12.583 c 0.048,-1.165 0.285,-1.4019 0.6042,-0.60417 0.2889,0.72187 0.2534,1.5844 -0.079,1.9167 -0.3323,0.33229 -0.5687,-0.25834 -0.5253,-1.3125 z m -991.58,-31.417 c 0.99549,-1.1 2.035,-2 2.31,-2 0.275,0 -0.31449,0.9 -1.31,2 -0.99551,1.1 -2.035,2 -2.31,2 -0.275,0 0.31449,-0.9 1.31,-2 z m -660.42,-7.5833 c 0.048,-1.165 0.28494,-1.4019 0.60416,-0.60417 0.28887,0.72187 0.25335,1.5844 -0.0789,1.9167 -0.3323,0.33229 -0.56864,-0.25834 -0.52522,-1.3125 z m 343.79,-13.167 c -1.2439,-1.5861 -1.2085,-1.6214 0.37756,-0.37756 1.6658,1.3064 2.1955,2.1276 1.3724,2.1276 -0.20765,0 -0.99515,-0.7875 -1.75,-1.75 z m 906,-1 c -1.2438,-1.5861 -1.2085,-1.6214 0.3776,-0.37756 1.6657,1.3064 2.1955,2.1276 1.3724,2.1276 -0.2076,0 -0.9951,-0.7875 -1.75,-1.75 z m -123.87,-1.75 c 1.2917,-1.375 2.5736,-2.5 2.8486,-2.5 0.275,0 -0.5569,1.125 -1.8486,2.5 -1.2917,1.375 -2.5736,2.5 -2.8486,2.5 -0.275,0 0.5569,-1.125 1.8486,-2.5 z m 362,-10 c 0,-5.4083 0.1946,-9.6387 0.4325,-9.4008 0.7121,0.71211 0.9068,17.895 0.2107,18.591 -0.3538,0.35374 -0.6432,-3.7818 -0.6432,-9.1902 z m -1562.6,5.25 -1.905,-2.25 2.25,1.905 c 2.1144,1.7902 2.7052,2.595 1.905,2.595 -0.18976,0 -1.2023,-1.0125 -2.25,-2.25 z m 61,-29 -1.905,-2.25 2.25,1.905 c 1.2375,1.0477 2.25,2.0602 2.25,2.25 0,0.80025 -0.80479,0.20945 -2.595,-1.905 z m 116.52,-4.5 -2.4243,-2.75 2.75,2.4243 c 2.5703,2.2659 3.2086,3.0757 2.4243,3.0757 -0.17912,0 -1.4166,-1.2375 -2.75,-2.75 z m 146.33,0.0337 c 1.5125,-0.22913 3.9875,-0.22913 5.5,0 1.5125,0.22912 0.275,0.41659 -2.75,0.41659 -3.025,0 -4.2625,-0.18747 -2.75,-0.41659 z m 9.5,0.054 c 0.6875,-0.27741 1.8125,-0.27741 2.5,0 0.6875,0.27741 0.125,0.50439 -1.25,0.50439 -1.375,0 -1.9375,-0.22698 -1.25,-0.50439 z m -341.42,-10.838 c 0.004,-3.85 0.18518,-5.3025 0.40166,-3.2277 0.21647,2.0748 0.21284,5.2248 -0.008,7 -0.22098,1.7752 -0.3981,0.0777 -0.39366,-3.7723 z m 779.48,-13.183 c 0.72187,-0.28887 1.5844,-0.25334 1.9167,0.0789 0.33229,0.33229 -0.25834,0.56864 -1.3125,0.52522 -1.165,-0.048 -1.4019,-0.28494 -0.60417,-0.60417 z m -110.56,-26.006 c 0.9625,-0.25153 2.5375,-0.25153 3.5,0 0.9625,0.25153 0.175,0.45732 -1.75,0.45732 -1.925,0 -2.7125,-0.2058 -1.75,-0.45732 z m 91.03,-4.0469 c 2.6291,-0.20668 6.6791,-0.20418 9,0.005 2.3209,0.20972 0.16983,0.37882 -4.7802,0.37578 -4.95,-0.003 -6.8489,-0.17464 -4.2198,-0.38132 z m -703.03,-37.953 c 0.9625,-0.25153 2.5375,-0.25153 3.5,0 0.9625,0.25153 0.175,0.45732 -1.75,0.45732 -1.925,0 -2.7125,-0.2058 -1.75,-0.45732 z" />
      <path
         id="path16"
         fill="#489747"
         d="m 63.37,-373.17 c -4.2727,-0.4574 -8.9977,-1.4312 -10.5,-2.1641 -3.6476,-1.7794 -3.5045,-5.1947 0.80883,-19.306 2.716,-8.8852 3.3541,-12.653 3.3795,-19.953 0.0486,-13.976 -2.3713,-19.905 -14.643,-35.876 -12.635,-16.445 -18.43,-29.574 -21.243,-48.128 -2.3624,-15.582 -3.0575,-17.399 -7.3409,-19.189 -4.5877,-1.9169 -8.7522,-1.2531 -21.074,3.3588 -13.961,5.2258 -25.681,11.196 -30.771,15.677 -6.2138,5.4696 -10.729,14.571 -10.744,21.657 -0.024,11.228 6.6977,25.323 14.545,30.5 9.036,5.961 13.851,10.515 13.851,13.1 0,5.4709 -10.116,20.675 -16.229,24.393 -3.0368,1.8468 -3.1666,1.8456 -6.9104,-0.0644 -4.9536,-2.5272 -21.654,-16 -29.524,-23.818 -10.506,-10.437 -12.099,-15.658 -13.002,-42.611 -0.54447,-16.248 -0.39705,-18.815 1.5147,-26.374 4.6866,-18.53 14.17,-30.218 49.258,-60.709 17.404,-15.124 17.614,-15.354 18.261,-20.079 3.0561,-22.297 -0.12622,-62.284 -5.9957,-75.338 -3.1194,-6.9376 -9.6781,-13.736 -14.506,-15.036 -7.4745,-2.0127 -11.071,1.541 -18.293,18.077 -7.1584,16.389 -11.999,20.959 -22.203,20.959 -10.158,0 -17.494,-7.5334 -19.475,-20 -1.2296,-7.7368 -1.7084,-33.977 -0.98107,-53.761 0.39725,-10.805 0.31628,-11.365 -1.9976,-13.828 -3.1365,-3.3387 -9.5769,-7.1738 -30.893,-18.396 -9.6121,-5.0606 -18.702,-10.074 -20.2,-11.14 -1.4977,-1.0665 -8.3416,-4.7999 -15.209,-8.2966 -16.075,-8.1852 -32.278,-17.857 -30.761,-18.363 1.8372,-0.61239 18.48,4.4184 30.646,9.264 15.67,6.241 71.946,24.521 75.49,24.521 3.9865,0 4.4472,-2.1873 3.7168,-17.646 -0.39897,-8.4438 -0.24635,-12.354 0.48221,-12.354 0.58626,0 3.8212,1.3304 7.1886,2.9564 8.9202,4.3072 19.563,6.0922 42.362,7.1051 29.779,1.323 51.814,5.0273 60.001,10.087 13.206,8.1616 27.052,25.549 46.791,58.759 13.366,22.488 25.375,33.156 41.313,36.702 11.281,2.5099 24.686,1.1717 66.156,-6.6046 28.682,-5.3783 38.684,-6.4397 61,-6.4734 21.243,-0.032 24.189,0.47873 38.5,6.6762 22.234,9.6284 55.212,34.602 64.808,49.076 12.882,19.433 29.907,56.64 44.712,97.717 2.8744,7.975 7.6636,19.666 10.643,25.979 2.9791,6.3136 5.2863,12.372 5.127,13.463 -0.40029,2.7428 -5.4565,3.7322 -15.265,2.9869 -12.913,-0.98116 -20.138,-4.2778 -29.171,-13.311 -5.5846,-5.5846 -9.7687,-14.036 -18.871,-38.119 -11.147,-29.492 -17.878,-42 -22.602,-42 -2.4199,0 -5.2351,6.1997 -7.9468,17.5 -4.0929,17.057 -2.4744,23.08 13.004,48.399 13.167,21.537 20.19,38.822 25.073,61.707 2.7448,12.865 3.7292,38.188 2.0252,52.099 l -1.233,10.066 -3.6516,0.60386 c -5.6678,0.9373 -21.741,0.73245 -24.488,-0.3121 -3.72,-1.4143 -4.4222,-5.3926 -5.0918,-28.848 -0.93577,-32.778 -1.6988,-34.94 -18.612,-52.757 -6.4548,-6.7997 -18.038,-20.147 -25.74,-29.66 -7.702,-9.513 -15.884,-19.097 -18.182,-21.297 l -4.1784,-4 -1.8234,2.2296 c -2.3904,2.9229 -4.0227,12.643 -4.0897,24.352 -0.0968,16.911 -1.2973,24.404 -4.5612,28.468 -13.333,16.601 -19.587,32.433 -25.262,63.951 -1.0894,6.05 -2.2991,11.822 -2.688,12.827 -1.1476,2.9641 -5.1713,3.9033 -18.96,4.4256 -10.581,0.40083 -13.251,0.22216 -14.225,-0.95201 -1.547,-1.864 -0.51161,-11.27 4.8212,-43.8 6.2804,-38.31 7.0251,-44.592 6.981,-58.886 -0.0413,-13.393 -2.0245,-29.766 -4.1778,-34.492 -0.62947,-1.3815 -1.871,-2.838 -2.759,-3.2365 -0.888,-0.39857 -8.8146,-0.88467 -17.615,-1.0802 -25.218,-0.56041 -81.352,-2.4712 -88.388,-3.0087 l -6.3877,-0.48799 0.4874,7.3458 c 0.40047,6.0356 3.0871,15.104 15.064,50.846 8.017,23.925 15.062,45.357 15.655,47.626 0.97365,3.7228 0.68145,5.3359 -2.9887,16.5 -4.9269,14.987 -11.283,28.557 -13.688,29.221 -4.0897,1.13 -11.264,1.353 -18.523,0.57593 z" />
      <path
         id="path18"
         fill="#4c4c4c"
         d="m 548.14,-370.68 c -11.619,-1.6508 -23.089,-4.0224 -29.424,-6.0843 -34.038,-11.078 -53.083,-34.219 -53.166,-64.604 -0.0293,-10.728 1.1726,-16.975 4.5468,-23.634 3.188,-6.2912 5.8686,-8.4996 26.809,-22.085 9.7491,-6.325 17.727,-11.766 17.73,-12.092 0.002,-0.32544 -1.9083,-1.164 -4.2458,-1.8635 -11.107,-3.3238 -19.924,-9.7284 -24.08,-17.492 -1.8713,-3.4954 -2.1663,-5.6348 -2.1444,-15.553 0.0318,-14.384 2.0243,-19.704 9.8367,-26.261 2.8259,-2.3719 10.903,-9.1825 17.948,-15.135 l 12.811,-10.822 -7.8105,-3.3829 c -10.514,-4.554 -17.696,-9.7655 -24.403,-17.708 -7.112,-8.4224 -11.096,-15.922 -14.458,-27.218 -2.3143,-7.7758 -2.6725,-10.775 -2.6844,-22.473 -0.0161,-15.863 2.5619,-27.693 8.7319,-40.07 16.391,-32.88 49.42,-50.959 93.003,-50.906 27.039,0.0328 46.251,5.2781 63.96,17.462 l 6.9601,4.7886 23.04,-0.64939 c 12.672,-0.35717 24.792,-0.92567 26.934,-1.2633 l 3.8937,-0.61395 -0.67614,11.876 c -0.37189,6.5319 -0.94329,13.826 -1.2698,16.21 l -0.59364,4.3336 -5.6239,-0.5549 c -3.0932,-0.3052 -11.15,-0.84333 -17.904,-1.1958 l -12.28,-0.64094 0.77978,4.3623 c 0.42887,2.3993 0.76316,12.462 0.74286,22.362 -0.0427,20.819 -1.5535,28.102 -8.6658,41.773 -4.7512,9.1324 -15.856,21.527 -25.367,28.314 -19.587,13.977 -47.598,21.329 -75.238,19.748 l -10.965,-0.62736 -5.0662,4.7388 c -10.958,10.25 -10.783,23.121 0.39576,28.985 3.7967,1.9917 5.0403,2.05 33.443,1.5686 57.607,-0.9764 76.71,-0.67859 85.287,1.3297 22.166,5.1897 36.248,18.593 41.417,39.42 2.0614,8.305 2.3326,33.82 0.45448,42.75 -4.8762,23.185 -14.562,40.91 -30.988,56.706 -18.264,17.564 -40.739,28.517 -69.539,33.889 -10.697,1.9953 -43.975,3.4714 -52.132,2.3124 z m 51.854,-26.814 c 17.058,-4.724 30.555,-13.319 39.381,-25.079 9.708,-12.935 13.716,-28.459 11.462,-44.398 -2.5744,-18.204 -10.618,-25.558 -32.697,-29.894 -6.1466,-1.207 -14.719,-1.5722 -37,-1.5762 -40.184,-0.007 -48.137,1.7834 -58.704,13.218 -9.1671,9.9189 -13.796,22.245 -13.796,36.741 0,26.553 18.677,45.774 50.5,51.972 9.2522,1.8018 32.847,1.2336 40.854,-0.98386 z m -18.934,-208.11 c 16.032,-4.1757 24.864,-17.775 27.59,-42.479 0.69337,-6.2849 0.87429,-14.504 0.45067,-20.474 -2.6034,-36.688 -15.349,-54.526 -38.96,-54.526 -18.574,0 -30.969,11.137 -36.17,32.5 -2.6623,10.934 -2.4144,38.214 0.45189,49.734 6.906,27.754 24.462,41.021 46.638,35.245 z m 190.08,125.42 c -23.044,-1.731 -40.349,-13.241 -49.914,-33.201 -8.5979,-17.941 -9.586,-27.404 -9.586,-91.804 v -48.894 h 38 v 45.894 c 0,48.776 0.82211,62.883 4.189,71.882 2.6205,7.0037 9.638,14.283 15.427,16.002 5.0785,1.5081 14.584,1.5722 19.766,0.13327 5.2881,-1.4683 12.904,-8.8242 15.582,-15.05 3.3832,-7.8645 3.9985,-18.679 4.0176,-70.611 l 0.018,-48.25 h 38.164 l -0.4226,54.25 c -0.4629,59.413 -0.9827,65.746 -6.5796,80.159 -5.0343,12.965 -15.443,25.631 -26.161,31.836 -10.677,6.1802 -25.819,8.9073 -42.5,7.6542 z m 389.5,0.0248 c -31.462,-2.3893 -54.65,-18.681 -68.401,-48.057 -6.1524,-13.144 -7.7152,-19.996 -8.2947,-36.367 -0.4048,-11.436 -0.1354,-15.742 1.4711,-23.51 6.3752,-30.829 27.336,-55.404 55.495,-65.066 31.585,-10.837 66.082,-3.8577 88.363,17.877 5.634,5.4959 13.019,14.95 12.213,15.633 -0.1905,0.16141 -7.2082,4.4432 -15.595,9.515 l -15.248,9.2216 -5.9822,-5.4136 c -9.7963,-8.8652 -20.023,-12.757 -33.521,-12.757 -14.448,0 -24.892,4.213 -34.518,13.924 -10.794,10.889 -15.794,25.098 -14.538,41.307 1.1358,14.648 5.5974,24.735 14.783,33.423 9.2231,8.7228 18.85,12.354 32.704,12.335 14.816,-0.0205 26.25,-4.3865 35.37,-13.507 l 5.439,-5.4391 14.63,10.995 c 8.0463,6.0473 14.63,11.401 14.63,11.896 0,1.8366 -15.26,17.045 -20.778,20.708 -15.836,10.512 -35.536,15.006 -58.222,13.283 z m 170.98,-0.0356 c -22.893,-1.8627 -43.185,-14.707 -57.485,-36.388 -6.3818,-9.6754 -9.9196,-17.851 -12.456,-28.783 -6.1882,-26.676 -1.5364,-55.354 12.282,-75.717 15.872,-23.39 39.66,-37 64.667,-37 37.257,0 68.675,25.9 79.579,65.602 2.223,8.0944 3.0176,29.461 1.4567,39.17 -3.4755,21.619 -15.631,43.459 -31.328,56.286 -6.8459,5.5946 -21.441,13.059 -29.197,14.932 -7.4092,1.7895 -19.01,2.5891 -27.519,1.8967 z m 25.245,-42.341 c 11.224,-5.5833 20.55,-17.897 23.892,-31.547 3.1265,-12.767 1.167,-30.582 -4.62,-42.002 -11.739,-23.166 -42.195,-29.779 -62.085,-13.48 -23.816,19.515 -22.388,66.676 2.5415,83.952 7.3456,5.0905 13.331,6.6148 24.545,6.2511 8.6019,-0.27895 10.801,-0.72256 15.726,-3.173 z m -493.23,-46.547 v -85 h 38 v 8.5 c 0,4.675 0.2318,8.5 0.5151,8.5 0.2834,0 3.9959,-2.7747 8.25,-6.1661 8.3246,-6.6362 18.496,-11.828 27.116,-13.84 7.4886,-1.7482 21.106,-0.7911 28.459,2.0002 13.355,5.0703 24.984,16.314 29.664,28.682 4.6335,12.245 4.9233,17.011 4.9604,81.574 l 0.035,60.75 h -38 l -0.01,-48.75 c -0.01,-61.281 -0.8892,-69.816 -8.097,-78.561 -4.8554,-5.8904 -10.058,-8.1388 -18.895,-8.166 -6.4697,-0.0199 -8.2361,0.38468 -12.859,2.945 -8.9279,4.9447 -15.01,13.702 -18.775,27.032 -1.46,5.1692 -1.7532,12.888 -2.1179,55.75 l -0.4233,49.75 h -37.825 v -85 z m 159,0 v -85 h 38 v 170 h -38 z m 415,0 v -85 h 33 v 21.382 l 3.511,-5.9412 c 4.177,-7.0681 10.756,-13.424 17.049,-16.47 7.965,-3.8558 21.368,-3.6684 26.899,0.37593 1.8322,1.3397 1.7005,1.996 -3.8172,19.019 l -5.7148,17.631 -3.5858,-1.4982 c -8.6077,-3.5965 -16.369,-0.88571 -21.531,7.5206 -6.5642,10.689 -7.7919,23.471 -7.802,81.231 l -0.01,46.75 h -38 z m 100,0 v -85 h 37.922 l 0.289,8.594 0.2889,8.594 7.3519,-5.9961 c 4.0435,-3.2979 10.118,-7.3821 13.5,-9.0761 30.028,-15.043 63.218,-1.4917 73.97,30.202 2.031,5.9869 2.1077,8.2589 2.4283,71.932 l 0.3311,65.75 h -37.081 l -0.029,-42.75 c -0.044,-64.746 -1.3119,-75.964 -9.63,-85.216 -12.805,-14.242 -35.57,-8.569 -45.323,11.294 -5.6457,11.497 -5.9812,15.324 -6.0003,68.422 l -0.018,48.25 h -38 z m -500.5,-100.9 c -11.878,-3.0392 -19.613,-14.202 -19.424,-28.034 0.2963,-21.686 23.219,-33.78 38.779,-20.46 11.223,9.6064 13.084,26.893 4.2131,39.139 -5.2784,7.2866 -15.616,11.39 -23.568,9.3552 z" />
    </g>
  </g>
</svg>
