<?xml version="1.0" encoding="UTF-8"?>
<svg width="135.79mm" height="30.341mm" version="1.1" viewBox="0 0 135.79 30.341" xmlns="http://www.w3.org/2000/svg" xmlns:cc="http://creativecommons.org/ns#" xmlns:dc="http://purl.org/dc/elements/1.1/" xmlns:rdf="http://www.w3.org/1999/02/22-rdf-syntax-ns#">
<metadata>
<rdf:RDF>
<cc:Work rdf:about="">
<dc:format>image/svg+xml</dc:format>
<dc:type rdf:resource="http://purl.org/dc/dcmitype/StillImage"/>
<dc:title/>
</cc:Work>
</rdf:RDF>
</metadata>
<g transform="translate(-42.219 -53.964)">
<g stroke-width=".26458" aria-label="OpenSSL">
<path d="m53.239 53.964c-6.562 0-11.02 4.8352-11.02 11.994 0 7.19 4.427 11.994 11.052 11.994 2.7944 0 5.2433-0.84772 7.0958-2.4176 2.4804-2.1036 3.956-5.6515 3.956-9.3878 0-7.3783-4.3642-12.182-11.083-12.182zm0 2.5746c4.9608 0 8.1633 3.7363 8.1633 9.5448 0 5.5259-3.2967 9.2936-8.1319 9.2936-4.898 0-8.1319-3.7677-8.1319-9.4192s3.2339-9.4192 8.1005-9.4192z" fill="#721412"/>
<path d="m67.148 84.074h2.6374v-8.5714c1.3815 1.6954 2.9199 2.449 5.055 2.449 4.27 0 7.033-3.4223 7.033-8.6656 0-5.5259-2.7002-8.9796-7.0644-8.9796-2.2292 0-4.0188 1.0047-5.2433 2.9513v-2.4804h-2.4176zm7.2214-21.319c2.8885 0 4.7724 2.5432 4.7724 6.4678 0 3.7363-1.9152 6.2794-4.7724 6.2794-2.7944 0-4.584-2.5118-4.584-6.3736 0-3.8619 1.7896-6.3736 4.584-6.3736z" fill="#721412"/>
<path d="m99.016 69.883c0-2.5118-0.18838-4.0188-0.65934-5.2433-1.0675-2.7002-3.5793-4.3328-6.6562-4.3328-4.584 0-7.5353 3.4851-7.5353 8.9168 0 5.4317 2.8258 8.7284 7.4725 8.7284 3.7677 0 6.3736-2.135 7.033-5.7143h-2.6374c-0.72214 2.1664-2.1978 3.2967-4.3014 3.2967-1.6641 0-3.0769-0.75353-3.956-2.135-0.62794-0.94192-0.84772-1.8838-0.87912-3.5165zm-12.057-2.135c0.21978-3.0455 2.0722-5.0236 4.7096-5.0236 2.6688 0 4.5212 2.0722 4.5212 5.0236z" fill="#721412"/>
<path d="m102.56 60.777v16.452h2.6374v-9.0738c0-3.3595 1.7582-5.5573 4.4584-5.5573 2.0722 0 3.3909 1.2559 3.3909 3.2339v11.397h2.606v-12.433c0-2.7316-2.0408-4.4898-5.2119-4.4898-2.449 0-4.0188 0.94192-5.4631 3.2339v-2.763z" fill="#721412"/>
<path d="m136.88 61.311c-0.0314-4.741-3.2025-7.347-8.9796-7.347-5.4945 0-8.6656 2.5746-8.6656 7.033 0 3.5479 1.7896 5.2747 6.4364 6.1539l3.2025 0.62794c3.1397 0.59655 4.3014 1.4757 4.3014 3.3281 0 1.9152-1.7582 3.0769-4.6154 3.0769-3.2025 0-4.9922-1.3501-5.1492-3.7991h-4.584c0.28258 4.898 3.6421 7.5667 9.482 7.5667 5.9027 0 9.3878-2.7316 9.3878-7.4097 0-3.6107-1.821-5.4945-6.0597-6.3108l-3.5793-0.69074c-3.3595-0.65934-4.3328-1.3187-4.3328-2.9827 0-1.7268 1.5071-2.8258 3.956-2.8258 2.9827 0 4.6468 1.2559 4.8038 3.5793z"/>
<path d="m157.95 61.311c-0.0314-4.741-3.2025-7.347-8.9796-7.347-5.4945 0-8.6656 2.5746-8.6656 7.033 0 3.5479 1.7896 5.2747 6.4364 6.1539l3.2025 0.62794c3.1397 0.59655 4.3014 1.4757 4.3014 3.3281 0 1.9152-1.7582 3.0769-4.6154 3.0769-3.2025 0-4.9922-1.3501-5.1492-3.7991h-4.584c0.28258 4.898 3.6421 7.5667 9.482 7.5667 5.9027 0 9.3878-2.7316 9.3878-7.4097 0-3.6107-1.821-5.4945-6.0597-6.3108l-3.5793-0.69074c-3.3595-0.65934-4.3328-1.3187-4.3328-2.9827 0-1.7268 1.5071-2.8258 3.956-2.8258 2.9827 0 4.6468 1.2559 4.8038 3.5793z"/>
<path d="m167.05 54.341h-4.7096v22.889h15.667v-3.9247h-10.958z"/>
</g>
<g stroke-width=".26458" aria-label="Cryptography and SSL/TLS Toolkit">
<path d="m76.845 79.022v0.62373q-0.29869-0.27819-0.63838-0.41582-0.33676-0.13763-0.71744-0.13763-0.74965 0-1.1479 0.45975-0.39825 0.45682-0.39825 1.3236 0 0.86386 0.39825 1.3236 0.39825 0.45682 1.1479 0.45682 0.38068 0 0.71744-0.13763 0.33969-0.13763 0.63838-0.41582v0.61788q-0.3104 0.21084-0.65887 0.31626-0.34554 0.10542-0.73208 0.10542-0.9927 0-1.5637-0.60616-0.57102-0.60909-0.57102-1.6604 0-1.0542 0.57102-1.6604 0.57102-0.60909 1.5637-0.60909 0.3924 0 0.73794 0.10542 0.34847 0.10249 0.65302 0.3104z" style="font-feature-settings:normal;font-variant-caps:normal;font-variant-ligatures:normal;font-variant-numeric:normal"/>
<path d="m79.636 80.281q-0.09078-0.05271-0.19913-0.07614-0.10542-0.02635-0.23427-0.02635-0.45682 0-0.7028 0.29869-0.24305 0.29576-0.24305 0.85214v1.7277h-0.54174v-3.2797h0.54174v0.50953q0.16984-0.29869 0.44218-0.44218 0.27234-0.14642 0.6618-0.14642 0.05564 0 0.12299 0.0088 0.06735 0.0059 0.14934 0.0205z" style="font-feature-settings:normal;font-variant-caps:normal;font-variant-ligatures:normal;font-variant-numeric:normal"/>
<path d="m81.566 83.362q-0.22841 0.58567-0.44511 0.76429-0.2167 0.17863-0.57981 0.17863h-0.43046v-0.45096h0.31626q0.22255 0 0.34554-0.10542t0.27233-0.49782l0.09664-0.24598-1.3265-3.227h0.57102l1.0249 2.5652 1.0249-2.5652h0.57102z" style="font-feature-settings:normal;font-variant-caps:normal;font-variant-ligatures:normal;font-variant-numeric:normal"/>
<path d="m84.272 82.565v1.7394h-0.54174v-4.5272h0.54174v0.49782q0.16984-0.29283 0.42754-0.43339 0.26062-0.14349 0.62081-0.14349 0.59738 0 0.96928 0.47439 0.37483 0.47439 0.37483 1.2475 0 0.77308-0.37483 1.2475-0.3719 0.47439-0.96928 0.47439-0.36018 0-0.62081-0.14056-0.25769-0.14349-0.42754-0.43632zm1.8331-1.145q0-0.59445-0.24598-0.93121-0.24305-0.33969-0.67059-0.33969-0.42754 0-0.67352 0.33969-0.24305 0.33676-0.24305 0.93121t0.24305 0.93414q0.24598 0.33676 0.67352 0.33676 0.42754 0 0.67059-0.33676 0.24598-0.33969 0.24598-0.93414z" style="font-feature-settings:normal;font-variant-caps:normal;font-variant-ligatures:normal;font-variant-numeric:normal"/>
<path d="m88.09 78.846v0.93121h1.1098v0.41875h-1.1098v1.7804q0 0.40118 0.10835 0.51539 0.11128 0.1142 0.44804 0.1142h0.55345v0.45096h-0.55345q-0.62374 0-0.86093-0.23134-0.23719-0.23427-0.23719-0.84922v-1.7804h-0.39532v-0.41875h0.39532v-0.93121z" style="font-feature-settings:normal;font-variant-caps:normal;font-variant-ligatures:normal;font-variant-numeric:normal"/>
<path d="m91.18 80.155q-0.43339 0-0.68523 0.33969-0.25184 0.33676-0.25184 0.92535 0 0.58859 0.24891 0.92828 0.25184 0.33676 0.68816 0.33676 0.43046 0 0.6823-0.33969 0.25184-0.33969 0.25184-0.92535 0-0.58274-0.25184-0.92242-0.25184-0.34262-0.6823-0.34262zm0-0.45682q0.7028 0 1.104 0.45682 0.40118 0.45682 0.40118 1.265 0 0.80529-0.40118 1.265-0.40118 0.45682-1.104 0.45682-0.70573 0-1.1069-0.45682-0.39825-0.45975-0.39825-1.265 0-0.80822 0.39825-1.265 0.40118-0.45682 1.1069-0.45682z" style="font-feature-settings:normal;font-variant-caps:normal;font-variant-ligatures:normal;font-variant-numeric:normal"/>
<path d="m95.736 81.379q0-0.58567-0.24305-0.90778-0.24012-0.32212-0.67644-0.32212-0.43339 0-0.67644 0.32212-0.24012 0.32212-0.24012 0.90778 0 0.58274 0.24012 0.90486 0.24305 0.32212 0.67644 0.32212 0.43632 0 0.67644-0.32212 0.24305-0.32212 0.24305-0.90486zm0.53881 1.2709q0 0.8375-0.3719 1.2445-0.3719 0.40997-1.1391 0.40997-0.28405 0-0.53588-0.04393-0.25184-0.041-0.48903-0.12885v-0.52417q0.2372 0.12885 0.46853 0.19034 0.23134 0.0615 0.47146 0.0615 0.53003 0 0.79358-0.27819 0.26355-0.27526 0.26355-0.83457v-0.26648q-0.16692 0.2899-0.42754 0.43339-0.26062 0.14349-0.62373 0.14349-0.60324 0-0.97221-0.45975t-0.36897-1.2182q0-0.76137 0.36897-1.2211t0.97221-0.45975q0.36311 0 0.62373 0.14349 0.26062 0.14349 0.42754 0.43339v-0.49782h0.53881z" style="font-feature-settings:normal;font-variant-caps:normal;font-variant-ligatures:normal;font-variant-numeric:normal"/>
<path d="m99.285 80.281q-0.09078-0.05271-0.19913-0.07614-0.10542-0.02635-0.23427-0.02635-0.45682 0-0.7028 0.29869-0.24305 0.29576-0.24305 0.85214v1.7277h-0.54174v-3.2797h0.54174v0.50953q0.16984-0.29869 0.44218-0.44218 0.27234-0.14642 0.6618-0.14642 0.05564 0 0.12299 0.0088 0.06735 0.0059 0.14934 0.0205z" style="font-feature-settings:normal;font-variant-caps:normal;font-variant-ligatures:normal;font-variant-numeric:normal"/>
<path d="m101.34 81.409q-0.65302 0-0.90486 0.14934-0.25183 0.14934-0.25183 0.50953 0 0.28698 0.18741 0.45682 0.19034 0.16692 0.51538 0.16692 0.44804 0 0.71745-0.31626 0.27233-0.31919 0.27233-0.84629v-0.12006zm1.0747-0.22255v1.8712h-0.53881v-0.49782q-0.18448 0.29869-0.45975 0.44218-0.27526 0.14056-0.67351 0.14056-0.50368 0-0.80237-0.28112-0.29576-0.28405-0.29576-0.75844 0-0.55346 0.36897-0.83457 0.3719-0.28112 1.1069-0.28112h0.75551v-0.05271q0-0.3719-0.24598-0.57395-0.24305-0.20498-0.68523-0.20498-0.28112 0-0.5476 0.06735-0.26647 0.06735-0.51246 0.20206v-0.49782q0.29576-0.1142 0.57396-0.16984 0.27819-0.05857 0.54174-0.05857 0.71158 0 1.063 0.36897t0.3514 1.1186z" style="font-feature-settings:normal;font-variant-caps:normal;font-variant-ligatures:normal;font-variant-numeric:normal"/>
<path d="m104.05 82.565v1.7394h-0.54174v-4.5272h0.54174v0.49782q0.16985-0.29283 0.42754-0.43339 0.26062-0.14349 0.62081-0.14349 0.59738 0 0.96927 0.47439 0.37483 0.47439 0.37483 1.2475 0 0.77308-0.37483 1.2475-0.37189 0.47439-0.96927 0.47439-0.36019 0-0.62081-0.14056-0.25769-0.14349-0.42754-0.43632zm1.8331-1.145q0-0.59445-0.24598-0.93121-0.24305-0.33969-0.67059-0.33969-0.42753 0-0.67351 0.33969-0.24306 0.33676-0.24306 0.93121t0.24306 0.93414q0.24598 0.33676 0.67351 0.33676 0.42754 0 0.67059-0.33676 0.24598-0.33969 0.24598-0.93414z" style="font-feature-settings:normal;font-variant-caps:normal;font-variant-ligatures:normal;font-variant-numeric:normal"/>
<path d="m110.06 81.078v1.9796h-0.53882v-1.962q0-0.4656-0.18155-0.69694-0.18156-0.23134-0.54467-0.23134-0.43632 0-0.68816 0.27819-0.25184 0.27819-0.25184 0.75844v1.8536h-0.54174v-4.5565h0.54174v1.7863q0.19327-0.29576 0.4539-0.44218 0.26355-0.14642 0.60616-0.14642 0.56517 0 0.85507 0.3514 0.28991 0.34847 0.28991 1.0278z" style="font-feature-settings:normal;font-variant-caps:normal;font-variant-ligatures:normal;font-variant-numeric:normal"/>
<path d="m112.5 83.362q-0.22841 0.58567-0.44511 0.76429-0.21669 0.17863-0.57981 0.17863h-0.43046v-0.45096h0.31626q0.22255 0 0.34554-0.10542t0.27234-0.49782l0.0966-0.24598-1.3265-3.227h0.57102l1.0249 2.5652 1.0249-2.5652h0.57103z" style="font-feature-settings:normal;font-variant-caps:normal;font-variant-ligatures:normal;font-variant-numeric:normal"/>
<path d="m118.08 81.409q-0.65302 0-0.90486 0.14934-0.25183 0.14934-0.25183 0.50953 0 0.28698 0.18741 0.45682 0.19034 0.16692 0.51538 0.16692 0.44804 0 0.71745-0.31626 0.27233-0.31919 0.27233-0.84629v-0.12006zm1.0747-0.22255v1.8712h-0.53881v-0.49782q-0.18448 0.29869-0.45975 0.44218-0.27526 0.14056-0.67351 0.14056-0.50368 0-0.80237-0.28112-0.29576-0.28405-0.29576-0.75844 0-0.55346 0.36897-0.83457 0.3719-0.28112 1.1069-0.28112h0.75551v-0.05271q0-0.3719-0.24598-0.57395-0.24305-0.20498-0.68523-0.20498-0.28112 0-0.5476 0.06735-0.26647 0.06735-0.51245 0.20206v-0.49782q0.29576-0.1142 0.57395-0.16984 0.27819-0.05857 0.54174-0.05857 0.71158 0 1.063 0.36897t0.3514 1.1186z" style="font-feature-settings:normal;font-variant-caps:normal;font-variant-ligatures:normal;font-variant-numeric:normal"/>
<path d="m122.99 81.078v1.9796h-0.53881v-1.962q0-0.4656-0.18156-0.69694t-0.54467-0.23134q-0.43632 0-0.68816 0.27819-0.25183 0.27819-0.25183 0.75844v1.8536h-0.54175v-3.2797h0.54175v0.50953q0.19326-0.29576 0.45389-0.44218 0.26355-0.14642 0.60616-0.14642 0.56517 0 0.85507 0.3514 0.28991 0.34847 0.28991 1.0278z" style="font-feature-settings:normal;font-variant-caps:normal;font-variant-ligatures:normal;font-variant-numeric:normal"/>
<path d="m126.22 80.275v-1.7746h0.53881v4.5565h-0.53881v-0.49196q-0.16985 0.29283-0.43047 0.43632-0.25769 0.14056-0.6208 0.14056-0.59445 0-0.96928-0.47439-0.3719-0.47439-0.3719-1.2475 0-0.77308 0.3719-1.2475 0.37483-0.47439 0.96928-0.47439 0.36311 0 0.6208 0.14349 0.26062 0.14056 0.43047 0.43339zm-1.8361 1.145q0 0.59445 0.24306 0.93414 0.24598 0.33676 0.67351 0.33676 0.42754 0 0.67352-0.33676 0.24598-0.33969 0.24598-0.93414t-0.24598-0.93121q-0.24598-0.33969-0.67352-0.33969-0.42753 0-0.67351 0.33969-0.24306 0.33676-0.24306 0.93121z" style="font-feature-settings:normal;font-variant-caps:normal;font-variant-ligatures:normal;font-variant-numeric:normal"/>
<path d="m132.42 78.829v0.57688q-0.33675-0.16106-0.63544-0.24012-0.29869-0.07906-0.57689-0.07906-0.48317 0-0.74672 0.18741-0.26062 0.18741-0.26062 0.53296 0 0.2899 0.17277 0.43925 0.1757 0.14642 0.6618 0.2372l0.35726 0.07321q0.6618 0.12592 0.97513 0.44511 0.31626 0.31626 0.31626 0.84922 0 0.63545-0.42753 0.96342-0.42461 0.32797-1.2475 0.32797-0.3104 0-0.6618-0.07028-0.34848-0.07028-0.7233-0.20791v-0.60909q0.36018 0.20206 0.70573 0.30455 0.34554 0.10249 0.67937 0.10249 0.5066 0 0.78186-0.19913 0.27527-0.19913 0.27527-0.5681 0-0.32212-0.19913-0.50367-0.1962-0.18156-0.64716-0.27234l-0.36019-0.07028q-0.6618-0.13178-0.95756-0.4129t-0.29576-0.78186q0-0.57981 0.40704-0.91364 0.40996-0.33383 1.1274-0.33383 0.30748 0 0.62667 0.05564 0.31918 0.05564 0.65301 0.16692z" style="font-feature-settings:normal;font-variant-caps:normal;font-variant-ligatures:normal;font-variant-numeric:normal"/>
<path d="m136.23 78.829v0.57688q-0.33676-0.16106-0.63545-0.24012-0.29869-0.07906-0.57688-0.07906-0.48318 0-0.74673 0.18741-0.26062 0.18741-0.26062 0.53296 0 0.2899 0.17277 0.43925 0.1757 0.14642 0.6618 0.2372l0.35726 0.07321q0.6618 0.12592 0.97514 0.44511 0.31626 0.31626 0.31626 0.84922 0 0.63545-0.42754 0.96342-0.42461 0.32797-1.2475 0.32797-0.3104 0-0.6618-0.07028-0.34847-0.07028-0.7233-0.20791v-0.60909q0.36018 0.20206 0.70573 0.30455 0.34554 0.10249 0.67937 0.10249 0.5066 0 0.78186-0.19913 0.27527-0.19913 0.27527-0.5681 0-0.32212-0.19913-0.50367-0.1962-0.18156-0.64716-0.27234l-0.36019-0.07028q-0.6618-0.13178-0.95756-0.4129t-0.29576-0.78186q0-0.57981 0.40704-0.91364 0.40996-0.33383 1.1274-0.33383 0.30748 0 0.62667 0.05564t0.65302 0.16692z" style="font-feature-settings:normal;font-variant-caps:normal;font-variant-ligatures:normal;font-variant-numeric:normal"/>
<path d="m137.42 78.685h0.59152v3.8742h2.1289v0.49782h-2.7204z" style="font-feature-settings:normal;font-variant-caps:normal;font-variant-ligatures:normal;font-variant-numeric:normal"/>
<path d="m141.69 78.685h0.49781l-1.5227 4.9284h-0.49782z" style="font-feature-settings:normal;font-variant-caps:normal;font-variant-ligatures:normal;font-variant-numeric:normal"/>
<path d="m142.17 78.685h3.6985v0.49782h-1.552v3.8742h-0.59445v-3.8742h-1.552z" style="font-feature-settings:normal;font-variant-caps:normal;font-variant-ligatures:normal;font-variant-numeric:normal"/>
<path d="m146.44 78.685h0.59153v3.8742h2.1289v0.49782h-2.7204z" style="font-feature-settings:normal;font-variant-caps:normal;font-variant-ligatures:normal;font-variant-numeric:normal"/>
<path d="m152.4 78.829v0.57688q-0.33676-0.16106-0.63545-0.24012-0.29869-0.07906-0.57688-0.07906-0.48317 0-0.74672 0.18741-0.26062 0.18741-0.26062 0.53296 0 0.2899 0.17277 0.43925 0.1757 0.14642 0.6618 0.2372l0.35726 0.07321q0.6618 0.12592 0.97513 0.44511 0.31626 0.31626 0.31626 0.84922 0 0.63545-0.42754 0.96342-0.4246 0.32797-1.2475 0.32797-0.31041 0-0.66181-0.07028-0.34847-0.07028-0.7233-0.20791v-0.60909q0.36019 0.20206 0.70573 0.30455 0.34555 0.10249 0.67938 0.10249 0.5066 0 0.78186-0.19913 0.27526-0.19913 0.27526-0.5681 0-0.32212-0.19912-0.50367-0.1962-0.18156-0.64716-0.27234l-0.36019-0.07028q-0.6618-0.13178-0.95756-0.4129-0.29577-0.28112-0.29577-0.78186 0-0.57981 0.40704-0.91364 0.40997-0.33383 1.1274-0.33383 0.30748 0 0.62666 0.05564 0.31919 0.05564 0.65302 0.16692z" style="font-feature-settings:normal;font-variant-caps:normal;font-variant-ligatures:normal;font-variant-numeric:normal"/>
<path d="m154.89 78.685h3.6985v0.49782h-1.552v3.8742h-0.59445v-3.8742h-1.552z" style="font-feature-settings:normal;font-variant-caps:normal;font-variant-ligatures:normal;font-variant-numeric:normal"/>
<path d="m159.39 80.155q-0.4334 0-0.68523 0.33969-0.25184 0.33676-0.25184 0.92535 0 0.58859 0.24891 0.92828 0.25183 0.33676 0.68816 0.33676 0.43046 0 0.6823-0.33969 0.25183-0.33969 0.25183-0.92535 0-0.58274-0.25183-0.92242-0.25184-0.34262-0.6823-0.34262zm0-0.45682q0.7028 0 1.104 0.45682 0.40118 0.45682 0.40118 1.265 0 0.80529-0.40118 1.265-0.40118 0.45682-1.104 0.45682-0.70573 0-1.1069-0.45682-0.39826-0.45975-0.39826-1.265 0-0.80822 0.39826-1.265 0.40118-0.45682 1.1069-0.45682z" style="font-feature-settings:normal;font-variant-caps:normal;font-variant-ligatures:normal;font-variant-numeric:normal"/>
<path d="m163.06 80.155q-0.43339 0-0.68523 0.33969-0.25184 0.33676-0.25184 0.92535 0 0.58859 0.24891 0.92828 0.25184 0.33676 0.68816 0.33676 0.43047 0 0.6823-0.33969 0.25184-0.33969 0.25184-0.92535 0-0.58274-0.25184-0.92242-0.25183-0.34262-0.6823-0.34262zm0-0.45682q0.7028 0 1.104 0.45682 0.40118 0.45682 0.40118 1.265 0 0.80529-0.40118 1.265-0.40118 0.45682-1.104 0.45682-0.70573 0-1.1069-0.45682-0.39825-0.45975-0.39825-1.265 0-0.80822 0.39825-1.265 0.40118-0.45682 1.1069-0.45682z" style="font-feature-settings:normal;font-variant-caps:normal;font-variant-ligatures:normal;font-variant-numeric:normal"/>
<path d="m165.45 78.501h0.53882v4.5565h-0.53882z" style="font-feature-settings:normal;font-variant-caps:normal;font-variant-ligatures:normal;font-variant-numeric:normal"/>
<path d="m167.1 78.501h0.54174v2.6911l1.6076-1.4144h0.68816l-1.7394 1.5344 1.8126 1.7453h-0.7028l-1.6662-1.6018v1.6018h-0.54174z" style="font-feature-settings:normal;font-variant-caps:normal;font-variant-ligatures:normal;font-variant-numeric:normal"/>
<path d="m170.59 79.777h0.53882v3.2797h-0.53882zm0-1.2768h0.53882v0.6823h-0.53882z" style="font-feature-settings:normal;font-variant-caps:normal;font-variant-ligatures:normal;font-variant-numeric:normal"/>
<path d="m172.79 78.846v0.93121h1.1098v0.41875h-1.1098v1.7804q0 0.40118 0.10835 0.51539 0.11128 0.1142 0.44803 0.1142h0.55346v0.45096h-0.55346q-0.62373 0-0.86093-0.23134-0.23719-0.23427-0.23719-0.84922v-1.7804h-0.39532v-0.41875h0.39532v-0.93121z" style="font-feature-settings:normal;font-variant-caps:normal;font-variant-ligatures:normal;font-variant-numeric:normal"/>
</g>
<flowRoot transform="scale(.26458)" fill="#000000" font-family="sans-serif" font-size="40px" letter-spacing="0px" word-spacing="0px" style="line-height:1.25" xml:space="preserve"><flowRegion><rect x="417.19" y="531.58" width="31.315" height="82.833"/></flowRegion><flowPara/></flowRoot>
</g>
</svg>
